<svg width="70" height="31" viewBox="0 0 70 31" fill="none" xmlns="http://www.w3.org/2000/svg">
<path d="M35.9331 13.689V12.6315C36.8662 12.9632 37.8739 13.1291 38.9563 13.1291C40.4865 13.1291 41.2516 12.5693 41.2516 11.4496C41.2516 10.4958 40.6876 10.0189 39.5597 10.0189H38.4151C36.5531 10.0189 35.6221 9.21019 35.6221 7.59285C35.6221 5.89257 36.8143 5.04243 39.1989 5.04243C40.2356 5.04243 41.1998 5.16684 42.0914 5.41566V6.47315C41.1998 6.14139 40.2356 5.97551 39.1989 5.97551C37.5815 5.97551 36.7729 6.51462 36.7729 7.59285C36.7729 8.54666 37.3203 9.02357 38.4151 9.02357H39.5597C41.4548 9.02357 42.4024 9.83224 42.4024 11.4496C42.4024 13.1913 41.2537 14.0622 38.9563 14.0622C37.8739 14.0622 36.8662 13.9378 35.9331 13.689Z" fill="#FFFEFE" fill-opacity="0.7"/>
<path d="M43.9576 14V7.46844H44.7351L44.928 8.28955C45.5542 7.74214 46.2364 7.46844 46.9745 7.46844C47.9201 7.46844 48.5649 7.76702 48.9091 8.36419C49.6183 7.76702 50.3378 7.46844 51.0676 7.46844C52.5689 7.46844 53.3195 8.29577 53.3195 9.95043V14H52.1687V9.88823C52.1687 8.91368 51.7581 8.4264 50.937 8.4264C50.3233 8.4264 49.7489 8.7084 49.2139 9.27239V14H48.0631V9.90689C48.0631 8.9199 47.6567 8.4264 46.8439 8.4264C46.197 8.4264 45.6185 8.7084 45.1084 9.27239V14H43.9576Z" fill="#FFFEFE" fill-opacity="0.7"/>
<path d="M54.8808 12.0281C54.8808 10.6886 55.7641 10.0189 57.5308 10.0189C58.0989 10.0189 58.6671 10.0603 59.2352 10.1433V9.52744C59.2352 8.77682 58.6484 8.40152 57.4748 8.40152C56.803 8.40152 56.1146 8.50519 55.4096 8.71255V7.77946C56.1146 7.57211 56.803 7.46844 57.4748 7.46844C59.4156 7.46844 60.386 8.1444 60.386 9.49633V14H59.7391L59.341 13.3531C58.6899 13.7844 57.9807 14 57.2135 14C55.6584 14 54.8808 13.3427 54.8808 12.0281ZM57.5308 10.9519C56.5313 10.9519 56.0316 11.3044 56.0316 12.0094C56.0316 12.7144 56.4256 13.0669 57.2135 13.0669C58.0098 13.0669 58.6837 12.8554 59.2352 12.4324V11.0763C58.6671 10.9934 58.0989 10.9519 57.5308 10.9519Z" fill="#FFFEFE" fill-opacity="0.7"/>
<path d="M62.2584 14V7.46844H63.036L63.2412 8.30199C63.8135 7.74629 64.5019 7.46844 65.3064 7.46844V8.4264C64.5268 8.4264 63.8944 8.70218 63.4092 9.25373V14H62.2584Z" fill="#FFFEFE" fill-opacity="0.7"/>
<path d="M66.4635 6.41095H67.1851L67.4339 7.46844H69.2005V8.40152H67.6143V12.1525C67.6143 12.7621 67.8776 13.0669 68.4043 13.0669H69.2005V14H68.1057C67.0109 14 66.4635 13.4132 66.4635 12.2396V6.41095Z" fill="#FFFEFE" fill-opacity="0.7"/>
<path d="M35.9331 27.689V26.6315C36.8662 26.9632 37.8739 27.1291 38.9563 27.1291C40.4865 27.1291 41.2516 26.5693 41.2516 25.4496C41.2516 24.4958 40.6876 24.0189 39.5597 24.0189H38.4151C36.5531 24.0189 35.6221 23.2102 35.6221 21.5928C35.6221 19.8926 36.8143 19.0424 39.1989 19.0424C40.2356 19.0424 41.1998 19.1668 42.0914 19.4157V20.4732C41.1998 20.1414 40.2356 19.9755 39.1989 19.9755C37.5815 19.9755 36.7729 20.5146 36.7729 21.5928C36.7729 22.5467 37.3203 23.0236 38.4151 23.0236H39.5597C41.4548 23.0236 42.4024 23.8322 42.4024 25.4496C42.4024 27.1913 41.2537 28.0622 38.9563 28.0622C37.8739 28.0622 36.8662 27.9378 35.9331 27.689Z" fill="#FFFEFE" fill-opacity="0.7"/>
<path d="M43.9576 28V19.1046H45.1084V22.1776C45.6641 21.7048 46.3421 21.4684 47.1425 21.4684C48.7723 21.4684 49.5872 22.2792 49.5872 23.9007V28H48.4364V23.882C48.4364 22.9116 47.9532 22.4264 46.987 22.4264C46.3276 22.4264 45.7014 22.7022 45.1084 23.2537V28H43.9576Z" fill="#FFFEFE" fill-opacity="0.7"/>
<path d="M52.2993 24.7093C52.2993 26.2811 52.9525 27.0669 54.2588 27.0669C55.5651 27.0669 56.2182 26.2811 56.2182 24.7093C56.2182 23.1708 55.5651 22.4015 54.2588 22.4015C52.9525 22.4015 52.2993 23.1708 52.2993 24.7093ZM51.1485 24.7342C51.1485 22.557 52.1853 21.4684 54.2588 21.4684C56.3323 21.4684 57.369 22.557 57.369 24.7342C57.369 26.9073 56.3323 27.9938 54.2588 27.9938C52.1936 27.9938 51.1568 26.9073 51.1485 24.7342Z" fill="#FFFEFE" fill-opacity="0.7"/>
<path d="M60.075 26.6688C60.527 26.8927 61.0309 27.0047 61.5866 27.0047C62.9426 27.0047 63.6207 26.1898 63.6207 24.56C63.6207 23.1376 62.9468 22.4264 61.599 22.4264C61.0184 22.4264 60.5104 22.4762 60.075 22.5757V26.6688ZM58.9242 21.7359C59.7909 21.5576 60.6867 21.4684 61.6115 21.4684C63.7057 21.4684 64.7528 22.5031 64.7528 24.5725C64.7528 26.8575 63.6995 28 61.5928 28C61.0703 28 60.5643 27.8963 60.075 27.689V30.3638H58.9242V21.7359Z" fill="#FFFEFE" fill-opacity="0.7"/>
<path d="M30 15C30 23.2843 23.2843 30 15 30C6.71573 30 0 23.2843 0 15C0 6.71573 6.71573 0 15 0C23.2843 0 30 6.71573 30 15Z" fill="#7FD3DF"/>
<path fill-rule="evenodd" clip-rule="evenodd" d="M7.74414 13.6001C7.74414 13.2825 7.99418 13.0246 8.30228 13.0246C8.61037 13.0246 8.86041 13.2825 8.86041 13.6001V20.1225C8.86041 21.0763 9.60978 21.849 10.5348 21.849H19.465C20.39 21.849 21.1394 21.0763 21.1394 20.1225V13.6001C21.1394 13.2825 21.3894 13.0246 21.6975 13.0246C22.0056 13.0246 22.2557 13.2825 22.2557 13.6001V20.1225C22.2557 21.7117 21.0062 23 19.465 23H10.5348C8.9936 23 7.74414 21.7117 7.74414 20.1225V13.6001Z" fill="white"/>
<path fill-rule="evenodd" clip-rule="evenodd" d="M15.0006 16.0936C15.741 16.0936 16.4503 16.3966 16.9742 16.9362C17.4973 17.4764 17.7913 18.2077 17.7913 18.9711V22.4242C17.7913 22.7419 17.5413 22.9997 17.2332 22.9997C16.9251 22.9997 16.675 22.7419 16.675 22.4242V18.9711C16.675 18.513 16.4986 18.0741 16.1847 17.7502C15.8706 17.4264 15.445 17.2446 15.0006 17.2446C14.5564 17.2446 14.1307 17.4265 13.8166 17.7502C13.5025 18.0741 13.3262 18.5129 13.3262 18.9711V22.4242C13.3262 22.7419 13.0762 22.9997 12.7681 22.9997C12.46 22.9997 12.21 22.7419 12.21 22.4242V18.9711C12.21 18.2077 12.5039 17.4764 13.0271 16.9362C13.551 16.3968 14.2602 16.0936 15.0006 16.0936Z" fill="white"/>
<path fill-rule="evenodd" clip-rule="evenodd" d="M12.7258 7.57551V11.8918C12.7258 13.5125 11.4504 14.8269 9.87862 14.8269C8.99233 14.8269 8.15513 14.4057 7.60956 13.6859C7.06412 12.9654 6.87129 12.027 7.08568 11.1398L7.67733 8.70045C7.9199 7.70064 8.7906 7 9.78928 7H12.1677C12.4758 7 12.7258 7.25782 12.7258 7.57551ZM11.6096 8.15102H9.78928C9.30252 8.15102 8.87844 8.49247 8.76085 8.97896L8.16919 11.4191C8.03751 11.9616 8.15574 12.5363 8.48924 12.9776C8.82339 13.4181 9.33617 13.6759 9.87858 13.6759C10.8341 13.6759 11.6095 12.8771 11.6095 11.8918L11.6096 8.15102Z" fill="white"/>
<path fill-rule="evenodd" clip-rule="evenodd" d="M17.8326 7H20.211C21.2096 7 22.0803 7.70064 22.3229 8.70045L22.9146 11.1398C23.1289 12.0268 22.9361 12.9654 22.3907 13.6859C21.8453 14.4057 21.0081 14.8269 20.1216 14.8269C18.5499 14.8269 17.2744 13.5125 17.2744 11.8918V7.57551C17.2744 7.25782 17.5245 7 17.8326 7ZM18.3907 8.15102V11.8918C18.3907 12.8771 19.1661 13.6759 20.1216 13.6759C20.6642 13.6759 21.1769 13.4181 21.511 12.9776C21.8444 12.5363 21.9627 11.9616 21.831 11.4191L21.2394 8.97896C21.1218 8.49247 20.6976 8.15102 20.2109 8.15102H18.3907Z" fill="white"/>
<path fill-rule="evenodd" clip-rule="evenodd" d="M12.1617 7.0002L17.8326 7C17.9807 7 18.1226 7.06084 18.2275 7.169C18.3324 7.27717 18.3905 7.42374 18.3905 7.57649L18.3868 11.7507C18.3853 13.4504 17.0487 14.827 15.4011 14.827H14.5899C12.9408 14.827 11.6035 13.4489 11.6035 11.7484V7.57551C11.6035 7.25782 11.8536 7.0002 12.1617 7.0002ZM12.7198 8.15122V11.7486C12.7198 12.8129 13.557 13.6762 14.59 13.6762H15.4011C16.4333 13.6762 17.2698 12.8145 17.2705 11.7502L17.2743 8.15145L12.7198 8.15122Z" fill="white"/>
</svg>
