<svg width="30" height="30" viewBox="0 0 30 30" fill="none" xmlns="http://www.w3.org/2000/svg">
<path d="M5.08789 13.7617V23.6737C5.08789 25.0422 6.19732 26.1517 7.56588 26.1517H22.4338C23.8024 26.1517 24.9118 25.0422 24.9118 23.6737V13.7617" stroke="#7FD3DF" stroke-width="2.47799" stroke-linecap="round" stroke-linejoin="round"/>
<path d="M7.56543 5.70881C7.56543 3.99812 8.95222 2.61133 10.6629 2.61133C13.0579 2.61133 14.9994 4.55283 14.9994 6.9478V8.80629H10.6629C8.95222 8.80629 7.56543 7.4195 7.56543 5.70881Z" stroke="#7FD3DF" stroke-width="2.47799" stroke-linejoin="round"/>
<path d="M22.4336 5.70881C22.4336 3.99812 21.0468 2.61133 19.3361 2.61133C16.9411 2.61133 14.9996 4.55283 14.9996 6.9478V8.80629H19.3361C21.0468 8.80629 22.4336 7.4195 22.4336 5.70881Z" stroke="#7FD3DF" stroke-width="2.47799" stroke-linejoin="round"/>
<path d="M3.84863 8.80664H26.1505V13.7626H3.84863V8.80664Z" stroke="#7FD3DF" stroke-width="2.47799" stroke-linecap="round" stroke-linejoin="round"/>
<path d="M15 13.7617V26.1517" stroke="#7FD3DF" stroke-width="2.47799" stroke-linecap="round" stroke-linejoin="round"/>
</svg>
