<svg width="30" height="30" viewBox="0 0 30 30" fill="none" xmlns="http://www.w3.org/2000/svg">
<path d="M18.4505 25.448H8.65268C6.68498 25.448 5.08984 23.8529 5.08984 21.8852V15.014C5.08984 13.0463 6.68498 11.4512 8.65268 11.4512H21.8861C23.8538 11.4512 25.4489 13.0463 25.4489 15.014V18.4496" stroke="#7FD3DF" stroke-width="1.90866" stroke-linecap="round"/>
<path d="M5.08984 14.6332V10.8159C5.08984 9.059 6.51407 7.63477 8.27095 7.63477H9.54339H10.6568M22.904 11.134V10.8159C22.904 9.059 21.4798 7.63477 19.7229 7.63477H18.4505" stroke="#7FD3DF" stroke-width="1.90866"/>
<path d="M5.08984 16.541H8.27095C9.32507 16.541 10.1796 17.3956 10.1796 18.4497V18.4497C10.1796 19.5038 9.32508 20.3583 8.27095 20.3583H5.08984V16.541Z" stroke="#7FD3DF" stroke-width="1.90866"/>
<path d="M8.90723 10.8158L10.6709 5.52487C10.7575 5.26508 11.0006 5.08984 11.2745 5.08984H18.2433C18.666 5.08984 18.9712 5.49442 18.8551 5.90085L17.8143 9.54339L17.1781 11.4521" stroke="#7FD3DF" stroke-width="1.90866" stroke-linecap="round"/>
<path d="M24.596 22.9325L21.25 22.9141" stroke="#7FD3DF" stroke-width="1.90866" stroke-miterlimit="10" stroke-linecap="round" stroke-linejoin="round"/>
</svg>
