<svg width="30" height="30" viewBox="0 0 30 30" fill="none" xmlns="http://www.w3.org/2000/svg">
<path d="M2.5 8.75V7.97882C2.07409 7.97882 1.72882 8.32409 1.72882 8.75H2.5ZM16.25 8.75H17.0212C17.0212 8.32409 16.6759 7.97882 16.25 7.97882V8.75ZM16.25 11.25V10.4788C16.0455 10.4788 15.8493 10.5601 15.7047 10.7047C15.5601 10.8493 15.4788 11.0455 15.4788 11.25H16.25ZM2.5 9.52118H16.25V7.97882H2.5V9.52118ZM15.4788 8.75V23.75H17.0212V8.75H15.4788ZM3.27118 21.25V8.75H1.72882V21.25H3.27118ZM16.25 12.0212H22.3906V10.4788H16.25V12.0212ZM26.7288 16.3594V21.25H28.2712V16.3594H26.7288ZM17.0212 23.75L17.0212 11.25H15.4788L15.4788 23.75L17.0212 23.75ZM23.7225 24.9725C23.0473 25.6476 21.9527 25.6476 21.2775 24.9725L20.1869 26.0631C21.4644 27.3405 23.5356 27.3405 24.8131 26.0631L23.7225 24.9725ZM21.2775 22.5275C21.9527 21.8524 23.0473 21.8524 23.7225 22.5275L24.8131 21.4369C23.5356 20.1595 21.4644 20.1595 20.1869 21.4369L21.2775 22.5275ZM8.72246 24.9725C8.04731 25.6476 6.95268 25.6476 6.27754 24.9725L5.18693 26.0631C6.4644 27.3405 8.5356 27.3405 9.81307 26.0631L8.72246 24.9725ZM6.27754 22.5275C6.95268 21.8524 8.04731 21.8524 8.72246 22.5275L9.81307 21.4369C8.5356 20.1595 6.4644 20.1595 5.18693 21.4369L6.27754 22.5275ZM23.7225 22.5275C24.0602 22.8653 24.2288 23.3064 24.2288 23.75H25.7712C25.7712 22.914 25.4517 22.0755 24.8131 21.4369L23.7225 22.5275ZM24.2288 23.75C24.2288 24.1936 24.0602 24.6347 23.7225 24.9725L24.8131 26.0631C25.4517 25.4245 25.7712 24.586 25.7712 23.75H24.2288ZM20 22.9788H16.25V24.5212H20V22.9788ZM21.2775 24.9725C20.9398 24.6347 20.7712 24.1936 20.7712 23.75H19.2288C19.2288 24.586 19.5483 25.4245 20.1869 26.0631L21.2775 24.9725ZM20.7712 23.75C20.7712 23.3064 20.9398 22.8653 21.2775 22.5275L20.1869 21.4369C19.5483 22.0755 19.2288 22.914 19.2288 23.75H20.7712ZM6.27754 24.9725C5.93981 24.6347 5.77118 24.1936 5.77118 23.75H4.22882C4.22882 24.586 4.54834 25.4245 5.18693 26.0631L6.27754 24.9725ZM5.77118 23.75C5.77118 23.3064 5.93981 22.8653 6.27754 22.5275L5.18693 21.4369C4.54834 22.0755 4.22882 22.914 4.22882 23.75H5.77118ZM16.25 22.9788H10V24.5212H16.25V22.9788ZM8.72246 22.5275C9.06018 22.8653 9.22882 23.3064 9.22882 23.75H10.7712C10.7712 22.914 10.4517 22.0755 9.81307 21.4369L8.72246 22.5275ZM9.22882 23.75C9.22882 24.1936 9.06018 24.6347 8.72246 24.9725L9.81307 26.0631C10.4517 25.4245 10.7712 24.586 10.7712 23.75H9.22882ZM26.7288 21.25C26.7288 22.2048 25.9548 22.9788 25 22.9788V24.5212C26.8066 24.5212 28.2712 23.0566 28.2712 21.25H26.7288ZM22.3906 12.0212C24.7865 12.0212 26.7288 13.9635 26.7288 16.3594H28.2712C28.2712 13.1116 25.6384 10.4788 22.3906 10.4788V12.0212ZM1.72882 21.25C1.72882 23.0566 3.19338 24.5212 5 24.5212V22.9788C4.0452 22.9788 3.27118 22.2048 3.27118 21.25H1.72882Z" fill="#7FD3DF"/>
<path d="M4.375 5C4.375 4.30964 4.93464 3.75 5.625 3.75C7.69607 3.75 9.375 5.42893 9.375 7.5V8.75H8.125C6.05393 8.75 4.375 7.07107 4.375 5Z" stroke="#7FD3DF" stroke-width="1.54236" stroke-linejoin="round"/>
<path d="M14.375 5C14.375 4.30964 13.8154 3.75 13.125 3.75C11.0539 3.75 9.375 5.42893 9.375 7.5V8.75H10.625C12.6961 8.75 14.375 7.07107 14.375 5Z" stroke="#7FD3DF" stroke-width="1.54236" stroke-linejoin="round"/>
</svg>
